<svg width="22" height="22" fill="none" xmlns="http://www.w3.org/2000/svg"><g clip-path="url(#clip0_35_878)"><path d="M15.375 2.658A82.725 82.725 0 0113.242.803 3.075 3.075 0 009.534.472c-.37.235-.682.548-.917.918a17.149 17.149 0 00-1.95 4.601 2.253 2.253 0 00-3.478-.15 8.396 8.396 0 00-2.392 5.953 10.105 10.105 0 007.575 9.876c.856.218 1.736.329 2.619.33A10.195 10.195 0 0021.2 11.801c0-4.193-2.699-6.484-5.825-9.143zm.2 15.02a7.311 7.311 0 01-.825.55c.263-.548.4-1.15.403-1.758 0-1.767-1.23-3.817-2.75-5.615a1.857 1.857 0 00-2.822 0c-2.156 2.528-3.506 5.262-2.248 7.478A7.424 7.424 0 013.548 11.8a5.455 5.455 0 011.233-3.575c.13.213.269.419.417.617a2.108 2.108 0 002.177.798 2.167 2.167 0 001.65-1.674c.34-1.8.988-3.526 1.917-5.103a.238.238 0 01.179-.113.336.336 0 01.27.085 82.436 82.436 0 002.205 1.917c2.923 2.482 4.854 4.125 4.854 7.045a7.406 7.406 0 01-2.875 5.884v-.002z" fill="url(#paint0_linear_35_878)"/></g><defs><linearGradient id="paint0_linear_35_878" x1="-2.219" y1="-8.25" x2="92.933" y2="-8.25" gradientUnits="userSpaceOnUse"><stop stop-color="#E5453D"/><stop offset="1" stop-color="#FF7A2E"/></linearGradient><clipPath id="clip0_35_878"><path fill="#fff" d="M0 0h22v22H0z"/></clipPath></defs></svg>