<svg width="30" height="30" fill="none" xmlns="http://www.w3.org/2000/svg"><g clip-path="url(#clip0_16_602)"><path d="M20.966 3.625a112.877 112.877 0 01-2.909-2.53A4.192 4.192 0 0014.665.039a4.08 4.08 0 00-2.914 1.856A23.384 23.384 0 009.093 8.17a3.072 3.072 0 00-4.744-.204 11.449 11.449 0 00-3.263 8.117 13.78 13.78 0 0010.33 13.467c1.168.297 2.367.448 3.572.45a13.901 13.901 0 0013.92-13.907c0-5.718-3.68-8.843-7.942-12.468zm.273 20.483a9.976 9.976 0 01-1.125.75 5.608 5.608 0 00.55-2.4c0-2.408-1.679-5.204-3.75-7.655a2.531 2.531 0 00-3.849 0C10.125 18.25 8.284 21.977 10 25a10.125 10.125 0 01-5.161-8.909 7.439 7.439 0 011.681-4.875c.177.29.366.57.569.841a2.876 2.876 0 002.968 1.088 2.955 2.955 0 002.25-2.282 21.57 21.57 0 012.614-6.96.324.324 0 01.244-.153.459.459 0 01.369.116c1.03.937 2.041 1.796 3.006 2.614 3.986 3.385 6.619 5.625 6.619 9.607a10.101 10.101 0 01-3.92 8.023v-.002z" fill="url(#paint0_linear_16_602)"/></g><defs><linearGradient id="paint0_linear_16_602" x1="-3.027" y1="-11.25" x2="126.727" y2="-11.25" gradientUnits="userSpaceOnUse"><stop stop-color="#E5453D"/><stop offset="1" stop-color="#FF7A2E"/></linearGradient><clipPath id="clip0_16_602"><path fill="#fff" d="M0 0h30v30H0z"/></clipPath></defs></svg>