<svg width="82" height="20" fill="none" xmlns="http://www.w3.org/2000/svg"><path d="M21.287 7.05h8.202v1.53h-3.225v8.603h-1.773V8.58h-3.21V7.05h.006zm7.852 2.796h1.516v1.416h.028c.05-.2.143-.393.28-.579a2.63 2.63 0 011.137-.894 1.97 1.97 0 01.721-.143c.186 0 .322.007.394.014.071.008.142.022.221.03v1.558a5.21 5.21 0 00-.35-.05 2.972 2.972 0 00-.35-.022c-.272 0-.53.058-.773.165a1.78 1.78 0 00-.63.479 2.433 2.433 0 00-.428.787 3.335 3.335 0 00-.158 1.08v3.489h-1.616v-7.33h.008zm11.727 7.337h-1.588V16.16h-.028c-.2.372-.494.665-.887.887a2.426 2.426 0 01-1.201.336c-.966 0-1.666-.236-2.096-.715-.428-.479-.643-1.201-.643-2.166V9.846h1.616v4.498c0 .644.121 1.101.372 1.366.243.264.593.4 1.037.4.343 0 .622-.05.85-.157.23-.107.415-.243.551-.422.143-.171.243-.386.308-.63.064-.242.093-.507.093-.793V9.854h1.616v7.329zm2.753-2.353c.05.472.228.801.536.994a2.16 2.16 0 001.123.286c.15 0 .321-.014.514-.035.193-.022.38-.072.544-.136.171-.065.307-.165.422-.293a.717.717 0 00.15-.501.691.691 0 00-.229-.508 1.613 1.613 0 00-.543-.322 5.461 5.461 0 00-.758-.207c-.286-.057-.572-.121-.866-.186-.3-.064-.593-.15-.872-.243a2.662 2.662 0 01-.75-.386 1.699 1.699 0 01-.53-.615c-.136-.25-.2-.558-.2-.93 0-.4.1-.729.293-1 .193-.272.443-.487.737-.651.3-.165.629-.28.994-.35.364-.065.715-.1 1.044-.1.378 0 .743.042 1.086.12.344.08.658.208.937.394.279.179.508.415.694.7.186.287.3.637.35 1.045h-1.688c-.078-.386-.25-.65-.529-.78-.279-.135-.6-.2-.958-.2a3 3 0 00-.407.029 2.23 2.23 0 00-.444.107.962.962 0 00-.35.229.553.553 0 00-.143.393c0 .2.071.358.207.48.136.12.315.22.537.307.221.078.471.15.758.207.286.057.579.122.88.186.292.064.578.15.864.243.286.093.537.222.758.386.222.165.4.365.536.608s.208.55.208.908c0 .436-.1.801-.3 1.108-.2.3-.458.551-.773.737a3.63 3.63 0 01-1.058.415 5.31 5.31 0 01-1.151.128c-.465 0-.894-.05-1.287-.157a3.132 3.132 0 01-1.023-.472 2.34 2.34 0 01-.68-.793c-.164-.315-.25-.694-.264-1.13h1.63v-.015zm5.334-4.984h1.223V7.644h1.616v2.202h1.458v1.209h-1.458v3.918c0 .172.007.315.021.444.014.121.05.229.1.314.05.086.129.15.236.193.108.043.243.065.43.065.114 0 .228 0 .343-.007.114-.007.228-.022.343-.05v1.25c-.179.022-.358.037-.522.058a4.173 4.173 0 01-.522.029c-.43 0-.772-.043-1.03-.122a1.336 1.336 0 01-.608-.357 1.241 1.241 0 01-.3-.587 4.41 4.41 0 01-.093-.808V11.07h-1.223V9.846h-.014zm5.441 0h1.53v.994h.03c.228-.429.543-.729.95-.915a3.134 3.134 0 011.323-.279c.58 0 1.08.1 1.509.308.43.2.787.479 1.073.836.286.358.493.773.636 1.245.143.471.215.98.215 1.515 0 .494-.065.973-.193 1.43a3.828 3.828 0 01-.58 1.23 2.844 2.844 0 01-.986.851c-.4.215-.866.322-1.41.322a3.95 3.95 0 01-.707-.064 3.113 3.113 0 01-.68-.208 2.449 2.449 0 01-.6-.364 2.26 2.26 0 01-.465-.515h-.028v3.661h-1.617V9.846zm5.65 3.676c0-.33-.043-.65-.13-.966a2.604 2.604 0 00-.385-.829 1.97 1.97 0 00-.637-.58 1.785 1.785 0 00-.88-.22c-.679 0-1.193.235-1.537.707-.343.472-.514 1.101-.514 1.888 0 .372.042.715.135 1.03.093.314.222.586.408.815.179.228.393.407.644.536.25.136.543.2.872.2.372 0 .68-.079.937-.229.257-.15.464-.35.629-.586.164-.243.286-.515.357-.822a4.6 4.6 0 00.1-.944zm2.853-6.471h1.616v1.53h-1.616V7.05zm0 2.795h1.616v7.337h-1.616V9.846zm3.06-2.795h1.616v10.132h-1.616V7.05zm6.571 10.332a4 4 0 01-1.566-.293 3.458 3.458 0 01-1.165-.8 3.488 3.488 0 01-.722-1.224 4.718 4.718 0 01-.25-1.559c0-.557.085-1.072.25-1.544a3.49 3.49 0 01.722-1.223 3.292 3.292 0 011.166-.8c.457-.194.98-.294 1.565-.294.587 0 1.109.1 1.566.293.458.193.844.465 1.166.801.315.344.558.751.722 1.223.165.472.25.987.25 1.545 0 .564-.085 1.086-.25 1.558-.164.472-.407.88-.722 1.223a3.294 3.294 0 01-1.166.801c-.457.193-.98.293-1.566.293zm0-1.28c.358 0 .673-.079.937-.229.265-.15.48-.35.65-.593.172-.243.294-.522.38-.83.078-.307.121-.622.121-.944a3.83 3.83 0 00-.121-.936 2.448 2.448 0 00-.38-.83 1.874 1.874 0 00-1.587-.815c-.357 0-.672.079-.936.229-.265.15-.48.35-.651.586a2.592 2.592 0 00-.379.83 3.83 3.83 0 00-.121.937c0 .321.042.636.121.943.079.308.207.587.379.83.172.243.386.443.65.593.265.158.58.23.937.23zm4.176-6.257h1.223V7.644h1.616v2.202h1.459v1.209h-1.459v3.918c0 .172.007.315.022.444.014.121.05.229.1.314.05.086.128.15.236.193.107.043.243.065.429.065.114 0 .228 0 .343-.007.114-.007.229-.022.343-.05v1.25c-.179.022-.357.037-.522.058a4.17 4.17 0 01-.522.029c-.429 0-.772-.043-1.03-.122a1.336 1.336 0 01-.607-.357 1.241 1.241 0 01-.3-.587 4.409 4.409 0 01-.094-.808V11.07H76.72V9.846h-.015z" fill="#fff"/><path d="M19.4 7.05h-7.408L9.703 0 7.408 7.05 0 7.043l6 4.362-2.296 7.043 6-4.354 5.991 4.354-2.288-7.043L19.4 7.05z" fill="#00B67A"/><path d="M13.922 13l-.515-1.595-3.704 2.689L13.923 13z" fill="#005128"/></svg>