<svg width="17" height="15" fill="none" xmlns="http://www.w3.org/2000/svg"><path fill-rule="evenodd" clip-rule="evenodd" d="M2.266 2.453v10.094h12.468V2.453H2.266zM.484 2.156c0-.82.665-1.484 1.485-1.484H15.03c.82 0 1.485.664 1.485 1.484v10.688c0 .82-.665 1.484-1.485 1.484H1.97c-.82 0-1.485-.664-1.485-1.484V2.156z" fill="#fff"/><path fill-rule="evenodd" clip-rule="evenodd" d="M5.531 3.64a.89.89 0 01.89.891 2.078 2.078 0 004.157 0 .89.89 0 011.781 0 3.86 3.86 0 11-7.718 0 .89.89 0 01.89-.89z" fill="#fff"/></svg>