<svg width="30" height="30" fill="none" xmlns="http://www.w3.org/2000/svg"><path d="M8.565 29.297a4.514 4.514 0 01-2.651-.875 4.462 4.462 0 01-1.664-5.067l1.462-4.524-3.85-2.815a4.532 4.532 0 012.675-8.19H9.25l1.431-4.462a4.535 4.535 0 018.633 0l1.436 4.462h4.712a4.531 4.531 0 012.674 8.19l-3.848 2.815 1.462 4.524a4.532 4.532 0 01-7 5.044L15 25.64l-3.75 2.76a4.524 4.524 0 01-2.685.898zm-4.028-17.72a.782.782 0 00-.462 1.413l4.945 3.614a1.875 1.875 0 01.677 2.09l-1.875 5.812a.782.782 0 001.208.875l4.861-3.576a1.875 1.875 0 012.223 0l4.861 3.575a.78.78 0 001.207-.875l-1.874-5.813a1.874 1.874 0 01.677-2.09l4.944-3.613a.782.782 0 00-.461-1.414h-6.093a1.875 1.875 0 01-1.785-1.302l-1.84-5.764a.783.783 0 00-1.49 0l-1.854 5.765a1.874 1.874 0 01-1.781 1.302H4.537z" fill="#51B37F"/></svg>