<svg width="57" height="57" fill="none" xmlns="http://www.w3.org/2000/svg"><path d="M35.57 9.447a17.532 17.532 0 0112.377 12.377" stroke="url(#paint0_linear_39_7128)" stroke-width="5.6" stroke-linecap="round" stroke-linejoin="round"/><path d="M20.926 28a18.45 18.45 0 008.543 8.504 1.733 1.733 0 001.712-.13l5.477-3.651a1.75 1.75 0 011.66-.153l10.246 4.391a1.744 1.744 0 011.05 1.815 10.502 10.502 0 01-10.417 9.17 29.75 29.75 0 01-29.75-29.75 10.502 10.502 0 019.17-10.416 1.744 1.744 0 011.815 1.05l4.395 10.254a1.75 1.75 0 01-.144 1.648l-3.64 5.56A1.735 1.735 0 0020.927 28v0z" stroke="url(#paint1_linear_39_7128)" stroke-width="5.6" stroke-linecap="round" stroke-linejoin="round"/><path d="M33.34 17.764a9.648 9.648 0 016.29 6.289" stroke="url(#paint2_linear_39_7128)" stroke-width="5.6" stroke-linecap="round" stroke-linejoin="round"/><defs><linearGradient id="paint0_linear_39_7128" x1="33.74" y1="4.805" x2="91.462" y2="4.805" gradientUnits="userSpaceOnUse"><stop stop-color="#FF0C00"/><stop offset="1" stop-color="#EEFF2D"/></linearGradient><linearGradient id="paint1_linear_39_7128" x1="3.508" y1="-7.3" x2="190.885" y2="-7.3" gradientUnits="userSpaceOnUse"><stop stop-color="#FF0C00"/><stop offset="1" stop-color="#EEFF2D"/></linearGradient><linearGradient id="paint2_linear_39_7128" x1="32.411" y1="15.406" x2="61.738" y2="15.406" gradientUnits="userSpaceOnUse"><stop stop-color="#FF0C00"/><stop offset="1" stop-color="#EEFF2D"/></linearGradient></defs></svg>