<svg width="20" height="32" fill="none" xmlns="http://www.w3.org/2000/svg"><path d="M6.935 21.25a3.587 3.587 0 003.925.785 3.598 3.598 0 001.948-1.965c.18-.44.273-.912.273-1.389v-.038a9.617 9.617 0 004.53-3.802 9.722 9.722 0 00-.678-11.284A9.594 9.594 0 008.092.101a9.557 9.557 0 00-3.659 1.343A9.629 9.629 0 001.605 4.14 9.705 9.705 0 00.073 7.746a3.652 3.652 0 00.524 2.725 3.613 3.613 0 002.284 1.554 3.576 3.576 0 002.705-.528 3.612 3.612 0 001.543-2.3 2.44 2.44 0 011.085-1.57 2.463 2.463 0 011.967-.27 2.34 2.34 0 011.609 1.622 2.45 2.45 0 01-.193 1.849A2.42 2.42 0 0110.165 12a6.27 6.27 0 00-3.149 2.361 6.343 6.343 0 00-1.135 3.785v.54c0 .96.379 1.883 1.054 2.563z" fill="#374957"/><path d="M6.935 21.25a3.587 3.587 0 003.925.785 3.598 3.598 0 001.948-1.965c.18-.44.273-.912.273-1.389v-.038a9.617 9.617 0 004.53-3.802 9.722 9.722 0 00-.678-11.284A9.594 9.594 0 008.092.101a9.557 9.557 0 00-3.659 1.343A9.629 9.629 0 001.605 4.14 9.705 9.705 0 00.073 7.746a3.652 3.652 0 00.524 2.725 3.613 3.613 0 002.284 1.554 3.576 3.576 0 002.705-.528 3.612 3.612 0 001.543-2.3 2.44 2.44 0 011.085-1.57 2.463 2.463 0 011.967-.27 2.34 2.34 0 011.609 1.622 2.45 2.45 0 01-.193 1.849A2.42 2.42 0 0110.165 12a6.27 6.27 0 00-3.149 2.361 6.343 6.343 0 00-1.135 3.785v.54c0 .96.379 1.883 1.054 2.563z" fill="url(#paint0_linear_3999_1603)"/><path d="M7.48 24.801a3.582 3.582 0 014.546.451 3.64 3.64 0 01.448 4.578 3.606 3.606 0 01-1.616 1.336 3.577 3.577 0 01-3.923-.787 3.65 3.65 0 01-.78-3.951 3.62 3.62 0 011.326-1.627z" fill="#374957"/><path d="M7.48 24.801a3.582 3.582 0 014.546.451 3.64 3.64 0 01.448 4.578 3.606 3.606 0 01-1.616 1.336 3.577 3.577 0 01-3.923-.787 3.65 3.65 0 01-.78-3.951 3.62 3.62 0 011.326-1.627z" fill="url(#paint1_linear_3999_1603)"/><defs><linearGradient id="paint0_linear_3999_1603" x1="-2.823" y1="-11.79" x2="86.24" y2="-11.79" gradientUnits="userSpaceOnUse"><stop stop-color="#E5453D"/><stop offset="1" stop-color="#FF7A2E"/></linearGradient><linearGradient id="paint1_linear_3999_1603" x1="-2.823" y1="-11.79" x2="86.24" y2="-11.79" gradientUnits="userSpaceOnUse"><stop stop-color="#E5453D"/><stop offset="1" stop-color="#FF7A2E"/></linearGradient></defs></svg>