<svg width="28" height="30" fill="none" xmlns="http://www.w3.org/2000/svg"><path d="M11.104 12.585c-.912 0-1.632.75-1.632 1.665s.736 1.665 1.632 1.665c.912 0 1.632-.75 1.632-1.665a1.635 1.635 0 00-1.632-1.665zm5.84 0c-.912 0-1.632.75-1.632 1.665s.736 1.665 1.632 1.665c.912 0 1.632-.75 1.632-1.665s-.72-1.665-1.632-1.665z" fill="url(#paint0_linear_4008_387)" fill-opacity=".44"/><path d="M24.72 0H3.28C1.472 0 0 1.38 0 3.09v20.28c0 1.71 1.472 3.09 3.28 3.09h18.144l-.848-2.775 2.048 1.785 1.936 1.68L28 30V3.09C28 1.38 26.528 0 24.72 0zm-6.176 19.59s-.576-.645-1.056-1.215c2.096-.555 2.896-1.785 2.896-1.785a9.4 9.4 0 01-1.84.885c-.8.315-1.568.525-2.32.645-1.37.236-2.776.231-4.144-.015a14.128 14.128 0 01-2.352-.645 9.68 9.68 0 01-1.168-.51c-.048-.03-.096-.045-.144-.075-.032-.015-.048-.03-.064-.045-.288-.15-.448-.255-.448-.255s.768 1.2 2.8 1.77c-.48.57-1.072 1.245-1.072 1.245-3.536-.105-4.88-2.28-4.88-2.28 0-4.83 2.304-8.745 2.304-8.745 2.304-1.62 4.496-1.575 4.496-1.575l.16.18c-2.88.78-4.208 1.965-4.208 1.965s.352-.18.944-.435c1.712-.705 3.072-.9 3.632-.945.096-.015.176-.03.272-.03a13.786 13.786 0 018.048 1.41S19.136 8.01 16.416 7.23l.224-.24s2.192-.045 4.496 1.575c0 0 2.304 3.915 2.304 8.745 0 0-1.36 2.175-4.896 2.28z" fill="url(#paint1_linear_4008_387)" fill-opacity=".44"/><defs><linearGradient id="paint0_linear_4008_387" x1="-4.138" y1="-11.25" x2="126.44" y2="-11.25" gradientUnits="userSpaceOnUse"><stop stop-color="#E5453D"/><stop offset="1" stop-color="#FF7A2E"/></linearGradient><linearGradient id="paint1_linear_4008_387" x1="-4.138" y1="-11.25" x2="126.44" y2="-11.25" gradientUnits="userSpaceOnUse"><stop stop-color="#E5453D"/><stop offset="1" stop-color="#FF7A2E"/></linearGradient></defs></svg>