<svg width="29" height="29" fill="none" xmlns="http://www.w3.org/2000/svg"><path fill-rule="evenodd" clip-rule="evenodd" d="M29 14.5C29 22.508 22.508 29 14.5 29S0 22.508 0 14.5 6.492 0 14.5 0 29 6.492 29 14.5zm-13.98-3.795c-1.41.586-4.23 1.8-8.456 3.642-.687.273-1.047.54-1.08.8-.055.443.498.617 1.25.852.103.033.21.066.318.102.74.24 1.736.522 2.253.533.47.01.995-.184 1.574-.58 3.949-2.667 5.987-4.014 6.115-4.043.09-.02.216-.047.3.029.085.075.077.217.069.256-.056.233-2.224 2.25-3.348 3.294-.35.325-.598.556-.648.609-.114.117-.23.23-.341.337-.689.662-1.204 1.16.029 1.972.592.39 1.066.713 1.538 1.034.516.352 1.03.702 1.698 1.14.169.111.33.226.49.338.6.43 1.14.813 1.807.753.386-.036.788-.4.99-1.486.48-2.57 1.425-8.132 1.644-10.426a2.55 2.55 0 00-.024-.57.612.612 0 00-.208-.393c-.173-.141-.441-.171-.562-.169-.545.01-1.381.3-5.408 1.976z" fill="url(#paint0_linear_4008_389)"/><defs><linearGradient id="paint0_linear_4008_389" x1="-4.286" y1="-10.875" x2="130.956" y2="-10.875" gradientUnits="userSpaceOnUse"><stop stop-color="#E5453D"/><stop offset="1" stop-color="#FF7A2E"/></linearGradient></defs></svg>