<svg width="22" height="22" viewBox="0 0 22 22" fill="none" xmlns="http://www.w3.org/2000/svg">
<g clip-path="url(#clip0_35_878)">
<path d="M15.3752 2.65834C14.6905 2.07717 13.9727 1.46667 13.2422 0.803002C12.9094 0.499475 12.514 0.272771 12.0839 0.138922C11.6539 0.00507325 11.1996 -0.0326506 10.7534 0.0284185C10.3193 0.0851897 9.90303 0.236515 9.53383 0.471718C9.16464 0.706922 8.85155 1.02027 8.61665 1.38967V1.38967C7.74583 2.82017 7.08925 4.37052 6.66782 5.99134C6.46769 5.72523 6.21107 5.50678 5.91642 5.35171C5.62177 5.19664 5.29641 5.1088 4.96375 5.09452C4.63109 5.08023 4.2994 5.13985 3.99254 5.26908C3.68568 5.39831 3.41128 5.59395 3.18907 5.84192C1.6352 7.43101 0.774826 9.5714 0.796567 11.7938C0.775907 14.0493 1.51045 16.2469 2.88323 18.0366C4.25602 19.8264 6.18812 21.1054 8.3719 21.67C9.2279 21.8877 10.1076 21.9986 10.9908 22C12.3311 22.0018 13.6586 21.7393 14.8974 21.2275C16.1362 20.7158 17.2619 19.9648 18.2101 19.0175C19.1583 18.0702 19.9104 16.9453 20.4234 15.707C20.9364 14.4687 21.2002 13.1415 21.1997 11.8012C21.1997 7.60834 18.5011 5.31667 15.3752 2.65834ZM15.5751 17.6788C15.3128 17.8806 15.0372 18.0644 14.7501 18.2288C15.0131 17.6796 15.1509 17.0787 15.1534 16.4698C15.1534 14.7033 13.9223 12.6528 12.4034 10.8552C12.2291 10.6512 12.0127 10.4875 11.7691 10.3752C11.5255 10.2629 11.2604 10.2048 10.9922 10.2048C10.7239 10.2048 10.4589 10.2629 10.2153 10.3752C9.97164 10.4875 9.75525 10.6512 9.58098 10.8552C7.42498 13.3833 6.07473 16.1168 7.33332 18.3333C6.17586 17.6824 5.21417 16.7329 4.54847 15.5838C3.88276 14.4347 3.53741 13.1282 3.5484 11.8003C3.51996 10.4997 3.95723 9.23179 4.78132 8.22525C4.91087 8.43792 5.0499 8.64356 5.1984 8.84217C5.44365 9.17331 5.78055 9.42532 6.16747 9.56705C6.5544 9.70879 6.97437 9.73403 7.37548 9.63967C7.78238 9.54894 8.15447 9.34277 8.44713 9.04588C8.73979 8.74899 8.9406 8.37399 9.02548 7.96584C9.36426 6.1667 10.0128 4.44003 10.9422 2.86275C10.9613 2.83143 10.9874 2.80495 11.0184 2.78539C11.0494 2.76583 11.0845 2.75372 11.121 2.75C11.1695 2.74367 11.2189 2.74802 11.2656 2.76275C11.3123 2.77747 11.3552 2.80222 11.3914 2.83525C12.1467 3.52184 12.8883 4.1525 13.596 4.752C16.5192 7.23434 18.4497 8.877 18.4497 11.7975C18.4535 12.9329 18.1962 14.0539 17.6977 15.074C17.1993 16.0941 16.473 16.9859 15.5751 17.6807V17.6788Z" fill="url(#paint0_linear_35_878)"/>
</g>
<defs>
<linearGradient id="paint0_linear_35_878" x1="-2.21948" y1="-8.24997" x2="92.9331" y2="-8.24997" gradientUnits="userSpaceOnUse">
<stop stop-color="#E5453D"/>
<stop offset="1" stop-color="#FF7A2E"/>
</linearGradient>
<clipPath id="clip0_35_878">
<rect width="22" height="22" fill="white"/>
</clipPath>
</defs>
</svg>
