<svg width="17" height="15" viewBox="0 0 17 15" fill="none" xmlns="http://www.w3.org/2000/svg">
<path fill-rule="evenodd" clip-rule="evenodd" d="M2.26562 2.45312V12.5469H14.7344V2.45312H2.26562ZM0.484375 2.15625C0.484375 1.33645 1.14895 0.671875 1.96875 0.671875H15.0312C15.851 0.671875 16.5156 1.33645 16.5156 2.15625V12.8438C16.5156 13.6635 15.851 14.3281 15.0312 14.3281H1.96875C1.14895 14.3281 0.484375 13.6635 0.484375 12.8438V2.15625Z" fill="white"/>
<path fill-rule="evenodd" clip-rule="evenodd" d="M5.53125 3.64062C6.02313 3.64062 6.42188 4.03937 6.42188 4.53125C6.42188 5.0824 6.64082 5.61098 7.03054 6.00071C7.42027 6.39043 7.94885 6.60938 8.5 6.60938C9.05115 6.60938 9.57973 6.39043 9.96946 6.00071C10.3592 5.61098 10.5781 5.0824 10.5781 4.53125C10.5781 4.03937 10.9769 3.64062 11.4688 3.64062C11.9606 3.64062 12.3594 4.03937 12.3594 4.53125C12.3594 5.55482 11.9528 6.53647 11.229 7.26024C10.5052 7.98401 9.52357 8.39062 8.5 8.39062C7.47643 8.39062 6.49478 7.98401 5.77101 7.26024C5.04724 6.53647 4.64062 5.55482 4.64062 4.53125C4.64062 4.03937 5.03937 3.64062 5.53125 3.64062Z" fill="white"/>
</svg>
