<svg width="16" height="16" viewBox="0 0 16 16" fill="none" xmlns="http://www.w3.org/2000/svg">
<path d="M8 0.6875C6.55373 0.6875 5.13993 1.11637 3.9374 1.91988C2.73486 2.72339 1.7976 3.86544 1.24413 5.20163C0.690668 6.53781 0.545856 8.00811 0.828011 9.4266C1.11017 10.8451 1.80661 12.148 2.82928 13.1707C3.85196 14.1934 5.15492 14.8898 6.57341 15.172C7.99189 15.4541 9.46219 15.3093 10.7984 14.7559C12.1346 14.2024 13.2766 13.2651 14.0801 12.0626C14.8836 10.8601 15.3125 9.44628 15.3125 8C15.3103 6.06128 14.5392 4.20259 13.1683 2.83171C11.7974 1.46082 9.93873 0.689694 8 0.6875ZM8.84375 11.375H8.5625V11.9375C8.5625 12.0867 8.50324 12.2298 8.39775 12.3352C8.29226 12.4407 8.14919 12.5 8 12.5C7.85082 12.5 7.70775 12.4407 7.60226 12.3352C7.49677 12.2298 7.4375 12.0867 7.4375 11.9375V11.375H6.3125C6.16332 11.375 6.02025 11.3157 5.91476 11.2102C5.80927 11.1048 5.75 10.9617 5.75 10.8125C5.75 10.6633 5.80927 10.5202 5.91476 10.4148C6.02025 10.3093 6.16332 10.25 6.3125 10.25H8.84375C9.06753 10.25 9.28214 10.1611 9.44037 10.0029C9.59861 9.84464 9.6875 9.63003 9.6875 9.40625C9.6875 9.18247 9.59861 8.96786 9.44037 8.80963C9.28214 8.6514 9.06753 8.5625 8.84375 8.5625H7.15625C6.63411 8.5625 6.13335 8.35508 5.76414 7.98587C5.39492 7.61665 5.1875 7.11589 5.1875 6.59375C5.1875 6.07161 5.39492 5.57085 5.76414 5.20163C6.13335 4.83242 6.63411 4.625 7.15625 4.625H7.4375V4.0625C7.4375 3.91332 7.49677 3.77024 7.60226 3.66475C7.70775 3.55926 7.85082 3.5 8 3.5C8.14919 3.5 8.29226 3.55926 8.39775 3.66475C8.50324 3.77024 8.5625 3.91332 8.5625 4.0625V4.625H9.6875C9.83669 4.625 9.97976 4.68426 10.0853 4.78975C10.1907 4.89524 10.25 5.03832 10.25 5.1875C10.25 5.33668 10.1907 5.47976 10.0853 5.58525C9.97976 5.69074 9.83669 5.75 9.6875 5.75H7.15625C6.93248 5.75 6.71787 5.83889 6.55963 5.99713C6.4014 6.15536 6.3125 6.36997 6.3125 6.59375C6.3125 6.81753 6.4014 7.03214 6.55963 7.19037C6.71787 7.34861 6.93248 7.4375 7.15625 7.4375H8.84375C9.3659 7.4375 9.86666 7.64492 10.2359 8.01413C10.6051 8.38335 10.8125 8.8841 10.8125 9.40625C10.8125 9.9284 10.6051 10.4292 10.2359 10.7984C9.86666 11.1676 9.3659 11.375 8.84375 11.375Z" fill="white"/>
</svg>
