<svg width="29" height="29" fill="none" xmlns="http://www.w3.org/2000/svg"><path fill-rule="evenodd" clip-rule="evenodd" d="M0 14.581C0 21.79 5.236 27.784 12.083 29V18.527H8.458V14.5h3.625v-3.223c0-3.625 2.336-5.638 5.64-5.638 1.046 0 2.175.161 3.221.322v3.706h-1.852c-1.773 0-2.175.885-2.175 2.014V14.5h3.866l-.644 4.027h-3.222V29C23.764 27.784 29 21.791 29 14.581 29 6.561 22.475 0 14.5 0S0 6.561 0 14.581z" fill="url(#paint0_linear_4008_502)" fill-opacity=".44"/><defs><linearGradient id="paint0_linear_4008_502" x1="-4.286" y1="-10.875" x2="130.956" y2="-10.875" gradientUnits="userSpaceOnUse"><stop stop-color="#E5453D"/><stop offset="1" stop-color="#FF7A2E"/></linearGradient></defs></svg>