<svg width="30" height="29" fill="none" xmlns="http://www.w3.org/2000/svg"><path d="M29.903 8.56a10.176 10.176 0 00-.698-3.563 7.393 7.393 0 00-1.73-2.563 7.712 7.712 0 00-2.656-1.67 11.357 11.357 0 00-3.642-.676C19.575.02 19.067 0 14.998 0c-4.068 0-4.59 0-6.18.088a11.357 11.357 0 00-3.64.676 7.687 7.687 0 00-2.656 1.67 7.387 7.387 0 00-1.73 2.563 10.214 10.214 0 00-.7 3.513C.022 10.058 0 10.548 0 14.474c0 3.926 0 4.428.093 5.965a10.28 10.28 0 00.698 3.516 7.392 7.392 0 001.732 2.562 7.713 7.713 0 002.656 1.67 11.33 11.33 0 003.64.723c1.605.07 2.113.09 6.181.09s4.59 0 6.18-.09a11.33 11.33 0 003.642-.674 7.72 7.72 0 002.655-1.67 7.402 7.402 0 001.732-2.563c.438-1.125.673-2.312.698-3.516.071-1.546.093-2.037.093-5.964-.003-3.926-.003-4.425-.097-5.964zM14.988 21.898c-4.254 0-7.701-3.327-7.701-7.433s3.447-7.432 7.701-7.432c2.043 0 4.002.783 5.446 2.177a7.303 7.303 0 012.256 5.255 7.303 7.303 0 01-2.256 5.256 7.845 7.845 0 01-5.446 2.177zm8.008-13.407c-.994 0-1.795-.775-1.795-1.733a1.68 1.68 0 01.526-1.225c.166-.16.364-.289.582-.376a1.852 1.852 0 011.956.376 1.714 1.714 0 01.526 1.225c0 .958-.803 1.733-1.795 1.733z" fill="url(#paint0_linear_4008_503)" fill-opacity=".44"/><path d="M14.988 19.294c2.763 0 5.003-2.161 5.003-4.828 0-2.666-2.24-4.828-5.003-4.828S9.986 11.8 9.986 14.466c0 2.667 2.24 4.828 5.002 4.828z" fill="url(#paint1_linear_4008_503)" fill-opacity=".44"/><defs><linearGradient id="paint0_linear_4008_503" x1="-4.434" y1="-10.875" x2="135.472" y2="-10.875" gradientUnits="userSpaceOnUse"><stop stop-color="#E5453D"/><stop offset="1" stop-color="#FF7A2E"/></linearGradient><linearGradient id="paint1_linear_4008_503" x1="-4.434" y1="-10.875" x2="135.472" y2="-10.875" gradientUnits="userSpaceOnUse"><stop stop-color="#E5453D"/><stop offset="1" stop-color="#FF7A2E"/></linearGradient></defs></svg>