<svg width="29" height="30" fill="none" xmlns="http://www.w3.org/2000/svg"><path d="M27.978 17.506c.148-.846.228-1.71.228-2.576 0-1.917-.363-3.778-1.077-5.527a14.179 14.179 0 00-2.936-4.515 13.607 13.607 0 00-4.355-3.042A13.187 13.187 0 0014.51.73c-.87 0-1.744.087-2.592.256A7.93 7.93 0 008.107 0C5.942 0 3.905.876 2.375 2.463A8.383 8.383 0 00.614 5.188 8.626 8.626 0 000 8.408c0 1.428.355 2.834 1.019 4.075a14.931 14.931 0 00-.207 2.447c0 1.918.363 3.78 1.077 5.527a14.17 14.17 0 002.933 4.516 13.609 13.609 0 004.354 3.042 13.186 13.186 0 007.73.895A7.887 7.887 0 0020.893 30c2.164 0 4.201-.872 5.731-2.463C28.16 25.951 29 23.837 29 21.593a8.607 8.607 0 00-1.022-4.087zm-13.415 6.125c-4.865 0-7.04-2.482-7.04-4.34 0-.954.678-1.62 1.613-1.62 2.081 0 1.545 3.102 5.427 3.102 1.99 0 3.09-1.12 3.09-2.267 0-.688-.327-1.455-1.64-1.79l-4.328-1.12C8.2 14.69 7.566 12.735 7.566 10.9c0-3.813 3.463-5.245 6.715-5.245 2.994 0 6.525 1.718 6.525 4.004 0 .981-.819 1.55-1.754 1.55-1.777 0-1.45-2.55-5.029-2.55-1.776 0-2.759.835-2.759 2.026 0 1.192 1.403 1.572 2.622 1.862l3.204.737c3.51.812 4.398 2.936 4.398 4.936 0 3.095-2.295 5.41-6.925 5.41z" fill="url(#paint0_linear_4008_505)" fill-opacity=".44"/><defs><linearGradient id="paint0_linear_4008_505" x1="-4.286" y1="-11.25" x2="130.956" y2="-11.25" gradientUnits="userSpaceOnUse"><stop stop-color="#E5453D"/><stop offset="1" stop-color="#FF7A2E"/></linearGradient></defs></svg>