<svg width="24" height="24" fill="none" xmlns="http://www.w3.org/2000/svg"><path d="M22.38 6.894a1.491 1.491 0 00-1.565-.216l-4.742 2.108-2.762-4.97a1.5 1.5 0 00-2.622 0l-2.761 4.97-4.743-2.108a1.5 1.5 0 00-2.07 1.714l2.386 10.156a1.483 1.483 0 00.694.946 1.514 1.514 0 001.172.155 24.928 24.928 0 0113.262-.001 1.514 1.514 0 001.616-.556c.12-.163.204-.348.25-.545l2.39-10.154a1.491 1.491 0 00-.504-1.5z" fill="url(#paint0_linear_39_6866)"/><defs><linearGradient id="paint0_linear_39_6866" x1="-2.154" y1="-3.203" x2="99.742" y2="-3.203" gradientUnits="userSpaceOnUse"><stop stop-color="#E5453D"/><stop offset="1" stop-color="#FF7A2E"/></linearGradient></defs></svg>