<svg width="24" height="24" fill="none" xmlns="http://www.w3.org/2000/svg"><path fill-rule="evenodd" clip-rule="evenodd" d="M12 1.5c-2.83 0-5.432.343-7.358.92-.957.288-1.804.65-2.435 1.097C1.603 3.945 1 4.6 1 5.5s.603 1.555 1.207 1.983c.13.093.27.182.419.267a5.556 5.556 0 00-.257.157C1.698 8.344 1 9.03 1 10c0 .9.603 1.555 1.207 1.984.13.092.27.18.418.266a5.566 5.566 0 00-.256.157C1.698 12.843 1 13.53 1 14.5c0 .899.603 1.555 1.207 1.984.13.092.27.181.418.266a5.484 5.484 0 00-.256.157C1.698 17.344 1 18.03 1 19c0 .9.603 1.555 1.207 1.984.63.447 1.478.808 2.435 1.095C6.568 22.657 9.169 23 12 23c2.83 0 5.432-.343 7.358-.92.957-.288 1.804-.65 2.435-1.096C22.397 20.555 23 19.899 23 19c0-.97-.698-1.656-1.369-2.093a5.456 5.456 0 00-.256-.157 5.25 5.25 0 00.418-.266C22.397 16.055 23 15.399 23 14.5v-.011c0-.036-.001-.072-.003-.107-.054-.908-.722-1.556-1.366-1.975a5.586 5.586 0 00-.256-.157c.148-.085.287-.174.418-.266C22.397 11.555 23 10.899 23 10c0-.97-.698-1.656-1.369-2.093a5.586 5.586 0 00-.257-.157c.149-.085.288-.174.419-.267C22.397 7.055 23 6.4 23 5.5s-.603-1.555-1.207-1.983c-.63-.447-1.478-.81-2.435-1.096C17.432 1.843 14.831 1.5 12 1.5zM3.364 5.852c-.262-.186-.338-.308-.358-.352.02-.044.096-.166.358-.352.382-.27 1-.556 1.852-.811C6.91 3.829 9.308 3.5 12 3.5s5.09.329 6.784.837c.853.255 1.47.54 1.852.81.262.187.338.309.358.353-.02.044-.096.166-.358.352-.382.27-1 .556-1.852.811-1.693.508-4.092.837-6.784.837s-5.09-.329-6.784-.837c-.853-.255-1.47-.54-1.852-.81zm15.015 5.426c.14-.037.274-.075.405-.114.853-.256 1.47-.54 1.852-.812.261-.185.337-.307.358-.351-.022-.048-.112-.195-.453-.417-.423-.275-1.073-.554-1.936-.8-1.827.453-4.128.716-6.605.716-2.477 0-4.778-.263-6.605-.715-.863.245-1.513.524-1.935.799-.342.222-.432.369-.454.417.02.044.097.166.358.351.382.271 1 .556 1.852.812a13.52 13.52 0 00.425.12c1.662.44 3.89.716 6.359.716 2.47 0 4.697-.277 6.359-.717a.783.783 0 01.02-.005zM12 18.5c2.477 0 4.779-.262 6.606-.715.863.245 1.512.524 1.934.799.342.222.432.369.454.417-.02.044-.097.166-.358.351-.382.271-1 .556-1.852.812C17.09 20.672 14.692 21 12 21s-5.09-.328-6.784-.836c-.853-.256-1.47-.54-1.852-.812-.261-.185-.337-.307-.358-.351.022-.048.112-.195.454-.417.422-.275 1.071-.554 1.934-.8 1.827.454 4.129.716 6.606.716z" fill="url(#paint0_linear_39_6869)" fill-opacity=".48"/><defs><linearGradient id="paint0_linear_39_6869" x1="-2.252" y1="-6.563" x2="100.346" y2="-6.563" gradientUnits="userSpaceOnUse"><stop stop-color="#E5453D"/><stop offset="1" stop-color="#FF7A2E"/></linearGradient></defs></svg>