<svg width="30" height="30" fill="none" xmlns="http://www.w3.org/2000/svg"><path d="M27.976 8.617a1.864 1.864 0 00-1.958-.27l-5.928 2.636-3.45-6.213a1.874 1.874 0 00-3.278 0L9.91 10.983 3.982 8.347a1.875 1.875 0 00-2.587 2.143l2.982 12.695a1.856 1.856 0 00.868 1.183 1.894 1.894 0 001.464.193 31.16 31.16 0 0116.578-.002 1.894 1.894 0 001.464-.193 1.856 1.856 0 00.868-1.182l2.987-12.693a1.863 1.863 0 00-.63-1.874z" fill="url(#paint0_linear_18_635)"/><defs><linearGradient id="paint0_linear_18_635" x1="-2.692" y1="-4.004" x2="124.677" y2="-4.004" gradientUnits="userSpaceOnUse"><stop stop-color="#E5453D"/><stop offset="1" stop-color="#FF7A2E"/></linearGradient></defs></svg>