<svg width="22" height="22" fill="none" xmlns="http://www.w3.org/2000/svg"><path d="M6.28 21.485a3.311 3.311 0 01-1.943-.642 3.273 3.273 0 01-1.22-3.716l1.072-3.317-2.823-2.065A3.323 3.323 0 013.327 5.74h3.456l1.05-3.272a3.325 3.325 0 016.33 0l1.054 3.272h3.455a3.323 3.323 0 011.961 6.006l-2.822 2.065 1.072 3.317a3.325 3.325 0 01-5.133 3.699L11 18.804l-2.75 2.023a3.317 3.317 0 01-1.97.658zM3.328 8.489a.574.574 0 00-.339 1.037l3.627 2.65a1.375 1.375 0 01.496 1.533L5.736 17.97a.574.574 0 00.886.642l3.565-2.623a1.375 1.375 0 011.63 0l3.565 2.622a.573.573 0 00.885-.642l-1.375-4.262a1.375 1.375 0 01.497-1.533l3.625-2.65a.574.574 0 00-.338-1.037h-4.468a1.375 1.375 0 01-1.309-.955l-1.35-4.227a.573.573 0 00-1.092 0l-1.36 4.228a1.375 1.375 0 01-1.305.955H3.327z" fill="#51B37F"/></svg>