<svg width="22" height="22" viewBox="0 0 22 22" fill="none" xmlns="http://www.w3.org/2000/svg">
<path d="M20.5156 6.31933C20.3189 6.15514 20.08 6.04954 19.8262 6.01459C19.5724 5.97965 19.3138 6.01676 19.08 6.12169L14.733 8.05378L12.2019 3.49783C12.0829 3.28346 11.9086 3.10484 11.6973 2.98047C11.486 2.85611 11.2452 2.79053 11 2.79053C10.7548 2.79053 10.514 2.85611 10.3027 2.98047C10.0913 3.10484 9.91711 3.28346 9.79804 3.49783L7.26691 8.05369L2.91918 6.12136C2.68526 6.01742 2.42696 5.98085 2.17337 6.01575C1.91979 6.05065 1.68098 6.15565 1.48383 6.31892C1.28668 6.48219 1.13903 6.69725 1.05748 6.93989C0.975933 7.18254 0.963736 7.44312 1.02226 7.69232L3.20897 17.0022C3.25057 17.1824 3.32849 17.3523 3.43795 17.5014C3.54741 17.6505 3.68612 17.7757 3.84561 17.8694C4.00593 17.9638 4.18358 18.025 4.36802 18.0494C4.55245 18.0738 4.73991 18.0609 4.91924 18.0114C8.89728 16.9132 13.0985 16.9127 17.0767 18.0102C17.256 18.0596 17.4433 18.0725 17.6277 18.0481C17.812 18.0238 17.9896 17.9626 18.1498 17.8683C18.3093 17.7746 18.4479 17.6495 18.5574 17.5005C18.6668 17.3515 18.7448 17.1818 18.7865 17.0017L20.977 7.69307C21.0366 7.44387 21.0249 7.18294 20.9433 6.94004C20.8618 6.69714 20.7136 6.48206 20.5156 6.31933V6.31933Z" fill="url(#paint0_linear_37_3966)"/>
<defs>
<linearGradient id="paint0_linear_37_3966" x1="-1.97436" y1="-2.93604" x2="91.4295" y2="-2.93604" gradientUnits="userSpaceOnUse">
<stop stop-color="#E5453D"/>
<stop offset="1" stop-color="#FF7A2E"/>
</linearGradient>
</defs>
</svg>
