<svg width="26" height="26" fill="none" xmlns="http://www.w3.org/2000/svg"><path d="M21.125 3.25h-2.438v-.813a.812.812 0 10-1.625 0v.813H8.937v-.813a.813.813 0 00-1.625 0v.813H4.875A1.627 1.627 0 003.25 4.875v16.25a1.627 1.627 0 001.625 1.625h16.25a1.627 1.627 0 001.625-1.625V4.875a1.627 1.627 0 00-1.625-1.625zm0 4.875H4.875v-3.25h2.437v.812a.812.812 0 101.625 0v-.812h8.125v.812a.812.812 0 101.625 0v-.812h2.438v3.25z" fill="url(#paint0_linear_23_1676)"/><defs><linearGradient id="paint0_linear_23_1676" x1=".367" y1="-6.297" x2="91.306" y2="-6.297" gradientUnits="userSpaceOnUse"><stop stop-color="#E5453D"/><stop offset="1" stop-color="#FF7A2E"/></linearGradient></defs></svg>