<svg width="26" height="26" fill="none" xmlns="http://www.w3.org/2000/svg"><path d="M22.3 4.149a.812.812 0 00-.85.076c-2.874 2.156-5.31 1.112-8.13-.096-2.869-1.23-6.12-2.623-9.745.096l-.014.012a.827.827 0 00-.118.113l-.02.026a.778.778 0 00-.028.037l-.018.028-.023.037-.017.034-.017.035a.812.812 0 00-.016.04l-.012.033a.803.803 0 00-.013.042l-.008.034a.823.823 0 00-.02.163l-.001.016v17.063a.812.812 0 001.625 0v-4.455c2.734-1.845 5.092-.836 7.805.327 1.652.708 3.43 1.47 5.334 1.47 1.403 0 2.873-.414 4.411-1.567a.812.812 0 00.325-.65V4.875a.813.813 0 00-.45-.726z" fill="url(#paint0_linear_23_1684)"/><defs><linearGradient id="paint0_linear_23_1684" x1=".368" y1="-4.876" x2="91.307" y2="-4.876" gradientUnits="userSpaceOnUse"><stop stop-color="#E5453D"/><stop offset="1" stop-color="#FF7A2E"/></linearGradient></defs></svg>