<svg width="26" height="26" fill="none" xmlns="http://www.w3.org/2000/svg"><path d="M22.698 17.182A10.553 10.553 0 0019.07 4.361a.82.82 0 00-.116-.08A10.557 10.557 0 004.328 19.024l.012.022a.806.806 0 00.082.11 10.547 10.547 0 0015.003 2.221.807.807 0 00.142-.111 10.62 10.62 0 003.13-4.084zM6.244 18.846l.397-.24a1.625 1.625 0 00.786-1.383l.02-3.434c0-.153.044-.303.127-.433l1.425-2.234a.813.813 0 011.162-.22l1.298.94c.338.246.758.351 1.171.294l3.198-.432a1.624 1.624 0 001.01-.547l2.25-2.6a1.62 1.62 0 00.395-1.142l-.028-.59a8.928 8.928 0 012.161 8.55l-1.618-1.48a1.63 1.63 0 00-1.72-.301l-3.093 1.285a1.624 1.624 0 00-.984 1.264l-.242 1.645a1.623 1.623 0 001.195 1.808l2.18.572.404.406a8.923 8.923 0 01-11.494-1.728z" fill="url(#paint0_linear_23_1672)"/><defs><linearGradient id="paint0_linear_23_1672" x1="-.685" y1="-5.485" x2="97.832" y2="-5.485" gradientUnits="userSpaceOnUse"><stop stop-color="#E5453D"/><stop offset="1" stop-color="#FF7A2E"/></linearGradient></defs></svg>