<svg width="26" height="26" fill="none" xmlns="http://www.w3.org/2000/svg"><path d="M9.81 17.974a.813.813 0 00-1.028.514c-.666 1.997-2.833 2.615-4.076 2.806.19-1.244.81-3.41 2.806-4.076a.813.813 0 10-.514-1.542c-1.662.554-2.882 1.874-3.53 3.818a9.418 9.418 0 00-.473 2.698.812.812 0 00.813.813 9.42 9.42 0 002.698-.473c1.944-.648 3.264-1.868 3.818-3.53a.813.813 0 00-.514-1.028z" fill="url(#paint0_linear_23_1680)"/><path d="M23.117 4.247a1.613 1.613 0 00-1.365-1.364c-1.146-.17-4.125-.255-7.029 2.648l-.91.911H7.59a1.615 1.615 0 00-1.149.476l-3.285 3.285a1.624 1.624 0 00.83 2.742l4.016.803 4.248 4.249.803 4.015a1.624 1.624 0 002.743.83l3.285-3.284a1.615 1.615 0 00.476-1.15v-6.22l.91-.912c2.904-2.903 2.82-5.882 2.649-7.029zM7.59 8.067h4.596l-4.05 4.051-3.83-.766L7.59 8.067zM17.932 18.41l-3.284 3.284-.766-3.83 4.05-4.05v4.596z" fill="url(#paint1_linear_23_1680)"/><defs><linearGradient id="paint0_linear_23_1680" x1="1.906" y1="12.87" x2="36.277" y2="12.87" gradientUnits="userSpaceOnUse"><stop stop-color="#E5453D"/><stop offset="1" stop-color="#FF7A2E"/></linearGradient><linearGradient id="paint1_linear_23_1680" x1="-.349" y1="-4.876" x2="95.275" y2="-4.876" gradientUnits="userSpaceOnUse"><stop stop-color="#E5453D"/><stop offset="1" stop-color="#FF7A2E"/></linearGradient></defs></svg>