<svg width="55" height="55" fill="none" xmlns="http://www.w3.org/2000/svg"><path d="M11.7 43.3c-1.977-1.978-.665-6.13-1.672-8.562-1.043-2.522-4.872-4.551-4.872-7.238 0-2.687 3.829-4.716 4.872-7.238 1.007-2.433-.305-6.584 1.673-8.561 1.977-1.978 6.128-.666 8.561-1.673 2.522-1.043 4.551-4.872 7.238-4.872 2.687 0 4.716 3.829 7.238 4.872 2.432 1.007 6.584-.305 8.561 1.673 1.978 1.977.666 6.128 1.673 8.561 1.043 2.522 4.872 4.551 4.872 7.238 0 2.687-3.829 4.716-4.872 7.238-1.007 2.432.305 6.584-1.673 8.561-1.977 1.978-6.129.666-8.561 1.673-2.522 1.043-4.551 4.872-7.238 4.872-2.687 0-4.716-3.829-7.238-4.872-2.433-1.007-6.584.305-8.561-1.673z" stroke="url(#paint0_linear_16_755)" stroke-width="5.5" stroke-linecap="round" stroke-linejoin="round"/><path d="M36.953 22.344L24.35 34.375l-6.302-6.016" stroke="url(#paint1_linear_16_755)" stroke-width="5.5" stroke-linecap="round" stroke-linejoin="round"/><defs><linearGradient id="paint0_linear_16_755" x1="-1.449" y1="-11.602" x2="206.953" y2="-11.602" gradientUnits="userSpaceOnUse"><stop stop-color="#E5453D"/><stop offset="1" stop-color="#FF7A2E"/></linearGradient><linearGradient id="paint1_linear_16_755" x1="15.253" y1="17.832" x2="103.422" y2="17.832" gradientUnits="userSpaceOnUse"><stop stop-color="#E5453D"/><stop offset="1" stop-color="#FF7A2E"/></linearGradient></defs></svg>