<svg width="56" height="56" fill="none" xmlns="http://www.w3.org/2000/svg"><path d="M12.397 43.996c-1.977-1.977-.665-6.129-1.672-8.561-1.043-2.522-4.872-4.552-4.872-7.238 0-2.687 3.829-4.716 4.872-7.238 1.007-2.433-.305-6.584 1.672-8.562 1.978-1.977 6.13-.665 8.562-1.672 2.522-1.043 4.551-4.872 7.238-4.872 2.687 0 4.716 3.829 7.238 4.872 2.432 1.007 6.584-.305 8.561 1.672 1.978 1.978.666 6.13 1.673 8.562 1.043 2.522 4.872 4.551 4.872 7.238 0 2.687-3.83 4.716-4.872 7.238-1.007 2.432.305 6.584-1.673 8.561-1.977 1.978-6.129.666-8.561 1.673-2.522 1.043-4.552 4.872-7.238 4.872-2.687 0-4.716-3.83-7.238-4.872-2.433-1.007-6.584.305-8.562-1.673z" stroke="url(#paint0_linear_39_7129)" stroke-width="5.5" stroke-linecap="round" stroke-linejoin="round"/><path d="M37.65 23.04L25.046 35.073l-6.302-6.016" stroke="url(#paint1_linear_39_7129)" stroke-width="5.5" stroke-linecap="round" stroke-linejoin="round"/><defs><linearGradient id="paint0_linear_39_7129" x1="-.752" y1="-10.905" x2="207.649" y2="-10.905" gradientUnits="userSpaceOnUse"><stop stop-color="#FF0C00"/><stop offset="1" stop-color="#EEFF2D"/></linearGradient><linearGradient id="paint1_linear_39_7129" x1="15.949" y1="18.529" x2="104.119" y2="18.529" gradientUnits="userSpaceOnUse"><stop stop-color="#FF0C00"/><stop offset="1" stop-color="#EEFF2D"/></linearGradient></defs></svg>