<svg width="256" height="256" fill="none" xmlns="http://www.w3.org/2000/svg"><path d="M207.884 40.54H48.509a23.934 23.934 0 00-23.906 23.907v111.562a23.936 23.936 0 0023.906 23.907h71.719v15.937H96.322a7.97 7.97 0 00-7.969 7.969 7.971 7.971 0 007.969 7.969h63.75a7.973 7.973 0 007.969-7.969 7.97 7.97 0 00-7.969-7.969h-23.906v-15.937h71.718a23.94 23.94 0 0016.897-7.01 23.942 23.942 0 007.01-16.897V64.447a23.935 23.935 0 00-23.907-23.906zm0 143.438H48.509a7.976 7.976 0 01-7.968-7.969v-15.937h175.312v15.937a7.975 7.975 0 01-7.969 7.969z" fill="#171515"/></svg>