<svg width="56" height="56" fill="none" xmlns="http://www.w3.org/2000/svg"><path d="M34.873 8.75A17.533 17.533 0 0147.25 21.127" stroke="url(#paint0_linear_16_754)" stroke-width="5.6" stroke-linecap="round" stroke-linejoin="round"/><path d="M20.23 27.303a18.45 18.45 0 008.542 8.504 1.734 1.734 0 001.713-.13l5.476-3.651a1.749 1.749 0 011.66-.153l10.246 4.391a1.745 1.745 0 011.05 1.815A10.503 10.503 0 0138.5 47.25 29.75 29.75 0 018.75 17.5a10.502 10.502 0 019.17-10.417 1.744 1.744 0 011.816 1.05l4.394 10.255a1.751 1.751 0 01-.144 1.647l-3.64 5.56a1.735 1.735 0 00-.117 1.708v0z" stroke="url(#paint1_linear_16_754)" stroke-width="5.6" stroke-linecap="round" stroke-linejoin="round"/><path d="M32.644 17.067a9.649 9.649 0 016.288 6.289" stroke="url(#paint2_linear_16_754)" stroke-width="5.6" stroke-linecap="round" stroke-linejoin="round"/><defs><linearGradient id="paint0_linear_16_754" x1="33.043" y1="4.108" x2="90.766" y2="4.108" gradientUnits="userSpaceOnUse"><stop stop-color="#E5453D"/><stop offset="1" stop-color="#FF7A2E"/></linearGradient><linearGradient id="paint1_linear_16_754" x1="2.812" y1="-7.997" x2="190.189" y2="-7.997" gradientUnits="userSpaceOnUse"><stop stop-color="#E5453D"/><stop offset="1" stop-color="#FF7A2E"/></linearGradient><linearGradient id="paint2_linear_16_754" x1="31.714" y1="14.709" x2="61.041" y2="14.709" gradientUnits="userSpaceOnUse"><stop stop-color="#E5453D"/><stop offset="1" stop-color="#FF7A2E"/></linearGradient></defs></svg>