<svg width="24" height="24" fill="none" xmlns="http://www.w3.org/2000/svg"><path fill-rule="evenodd" clip-rule="evenodd" d="M4.793 1.293a1 1 0 011.414 0l3.5 3.5A1 1 0 019 6.5h-.5v2a1 1 0 01-.5.866V12h1v-1.5a1 1 0 01.293-.707l2-2a1 1 0 011.414 0l2 2A1 1 0 0115 10.5V12h1V9.366a1 1 0 01-.5-.866v-2H15a1 1 0 01-.707-1.707l3.5-3.5a1 1 0 011.414 0l3.5 3.5A1 1 0 0122 6.5h-.5v2a1 1 0 01-.5.866V12h1a1 1 0 011 1v9a1 1 0 01-1 1h-7a1 1 0 01-1-1v-2a2 2 0 10-4 0v2a1 1 0 01-1 1H2a1 1 0 01-1-1v-9a1 1 0 011-1h1V9.366a1 1 0 01-.5-.866v-2H2a1 1 0 01-.707-1.707l3.5-3.5zM19 9.5h-1V13a1 1 0 01-1 1h-3a1 1 0 01-1-1v-2.086l-1-1-1 1V13a1 1 0 01-1 1H7a1 1 0 01-1-1V9.5H5V13a1 1 0 01-1 1H3v7h5v-1a4 4 0 018 0v1h5v-7h-1a1 1 0 01-1-1V9.5zm.5-2v-1h-2v1h2zm.086-3L18.5 3.414 17.414 4.5h2.172zM4.5 6.5h2v1h-2v-1zm1-3.086L6.586 4.5H4.414L5.5 3.414z" fill="url(#paint0_linear_39_6868)"/><path d="M19 9.5h-1V13a1 1 0 01-1 1h-3a1 1 0 01-1-1v-2.086l-1-1-1 1V13a1 1 0 01-1 1H7a1 1 0 01-1-1V9.5H5V13a1 1 0 01-1 1H3v7h5v-1a4 4 0 018 0v1h5v-7h-1a1 1 0 01-1-1V9.5z" fill="url(#paint1_linear_39_6868)"/><defs><linearGradient id="paint0_linear_39_6868" x1="-2.252" y1="-7.25" x2="100.346" y2="-7.25" gradientUnits="userSpaceOnUse"><stop stop-color="#E5453D"/><stop offset="1" stop-color="#FF7A2E"/></linearGradient><linearGradient id="paint1_linear_39_6868" x1="-2.252" y1="-7.25" x2="100.346" y2="-7.25" gradientUnits="userSpaceOnUse"><stop stop-color="#E5453D"/><stop offset="1" stop-color="#FF7A2E"/></linearGradient></defs></svg>