<svg width="24" height="24" fill="none" xmlns="http://www.w3.org/2000/svg"><path fill-rule="evenodd" clip-rule="evenodd" d="M10.083 3.347l.09.073a.5.5 0 01.182.31l1.12 6.94a1.284 1.284 0 002.545-.08l.664-6.863a.5.5 0 01.186-.342l.052-.042A.4.4 0 0115 3.58v9.754c0 1.187 1.313 1.904 2.311 1.262l2.236-1.437a1 1 0 01.54-.159h.156l-3.792 6.388c-.038.036-.096.09-.175.154a5.2 5.2 0 01-.872.576c-.802.428-2.078.882-3.904.882-1.892 0-3.168-.315-3.976-.667a3.69 3.69 0 01-.873-.511 1.59 1.59 0 01-.237-.24l-2.447-7.094-.502-2.51.932 2.02a1.5 1.5 0 001.889.775l.065-.024a1 1 0 00.64-1.072l-.83-6.074 1.829 5.285a1.281 1.281 0 002.489-.501l-.442-6.843a.348.348 0 01.046-.197zM17.25 20c.753.659.752.66.752.66H18l-.002.002-.004.005-.01.01a2.07 2.07 0 01-.117.122c-.075.074-.18.171-.316.284a7.232 7.232 0 01-1.206.8C15.273 22.454 13.674 23 11.5 23c-2.108 0-3.666-.351-4.774-.833-1.074-.467-1.809-1.097-2.12-1.72a.96.96 0 01-.051-.12l-2.5-7.25a.998.998 0 01-.036-.13L1.04 8.05A2.072 2.072 0 011 7.644v-.08c0-1.68 2.184-2.33 3.103-.925M17.25 20l.753.659a1 1 0 00.107-.148l4.301-7.245A1.5 1.5 0 0021.121 11h-1.034a3 3 0 00-1.622.477L17 12.418V3.58a2.4 2.4 0 00-.703-1.697 1.933 1.933 0 00-2.574-.142l-.103.082a2.5 2.5 0 00-.926 1.712l-.13 1.335-.235-1.458a2.5 2.5 0 00-.906-1.554l-.17-.136a1.899 1.899 0 00-2.529.14 2.348 2.348 0 00-.683 1.811l.1 1.537-.317-.915a2.285 2.285 0 00-.789-1.08l-.066-.05a1.774 1.774 0 00-2.483.354 2.16 2.16 0 00-.412 1.589l.275 2.012-.102-.22a2.038 2.038 0 00-.144-.26" fill="url(#paint0_linear_39_6873)" fill-opacity=".48"/><path d="M10.083 3.347l.09.073a.5.5 0 01.182.31l1.12 6.94a1.284 1.284 0 002.545-.08l.664-6.863a.5.5 0 01.186-.342l.052-.042A.4.4 0 0115 3.58v9.754c0 1.187 1.313 1.904 2.311 1.262l2.236-1.437a1 1 0 01.54-.159h.156l-3.792 6.388c-.038.036-.096.09-.175.154a5.2 5.2 0 01-.872.576c-.802.428-2.078.882-3.904.882-1.892 0-3.168-.315-3.976-.667a3.69 3.69 0 01-.873-.511 1.59 1.59 0 01-.237-.24l-2.447-7.094-.502-2.51.932 2.02a1.5 1.5 0 001.889.775l.065-.024a1 1 0 00.64-1.072l-.83-6.074 1.829 5.285a1.281 1.281 0 002.489-.501l-.442-6.843a.348.348 0 01.046-.197z" fill="url(#paint1_linear_39_6873)" fill-opacity=".48"/><defs><linearGradient id="paint0_linear_39_6873" x1="-2.196" y1="-6.83" x2="98.648" y2="-6.83" gradientUnits="userSpaceOnUse"><stop stop-color="#E5453D"/><stop offset="1" stop-color="#FF7A2E"/></linearGradient><linearGradient id="paint1_linear_39_6873" x1="-2.196" y1="-6.83" x2="98.648" y2="-6.83" gradientUnits="userSpaceOnUse"><stop stop-color="#E5453D"/><stop offset="1" stop-color="#FF7A2E"/></linearGradient></defs></svg>