<svg width="24" height="24" fill="none" xmlns="http://www.w3.org/2000/svg"><path d="M12 2.25a9.01 9.01 0 00-9 9v9a.75.75 0 001.225.58L6.5 18.97l2.275 1.861a.75.75 0 00.95 0L12 18.97l2.275 1.861a.75.75 0 00.95 0L17.5 18.97l2.275 1.861A.75.75 0 0021 20.25v-9a9.01 9.01 0 00-9-9zM9.375 12a1.125 1.125 0 110-2.25 1.125 1.125 0 010 2.25zm5.25 0a1.125 1.125 0 110-2.25 1.125 1.125 0 010 2.25z" fill="url(#paint0_linear_39_6867)" fill-opacity=".48"/><defs><linearGradient id="paint0_linear_39_6867" x1=".34" y1="-4.781" x2="84.283" y2="-4.781" gradientUnits="userSpaceOnUse"><stop stop-color="#E5453D"/><stop offset="1" stop-color="#FF7A2E"/></linearGradient></defs></svg>