<svg width="24" height="24" fill="none" xmlns="http://www.w3.org/2000/svg"><path d="M12 14.25a5.25 5.25 0 100-10.5 5.25 5.25 0 000 10.5z" fill="url(#paint0_linear_39_6865)"/><path d="M12 .75a8.247 8.247 0 00-5.25 14.61v7.14a.75.75 0 001.086.67l4.163-2.082 4.166 2.083a.75.75 0 001.085-.671v-7.141A8.246 8.246 0 0012 .75zm0 15A6.75 6.75 0 1118.75 9 6.757 6.757 0 0112 15.75z" fill="url(#paint1_linear_39_6865)"/><defs><linearGradient id="paint0_linear_39_6865" x1="5.198" y1="-.188" x2="54.165" y2="-.187" gradientUnits="userSpaceOnUse"><stop stop-color="#E5453D"/><stop offset="1" stop-color="#FF7A2E"/></linearGradient><linearGradient id="paint1_linear_39_6865" x1="1.311" y1="-7.688" x2="78.259" y2="-7.688" gradientUnits="userSpaceOnUse"><stop stop-color="#E5453D"/><stop offset="1" stop-color="#FF7A2E"/></linearGradient></defs></svg>