<svg width="24" height="24" fill="none" xmlns="http://www.w3.org/2000/svg"><path d="M20.78 3.22a.75.75 0 00-.53-.22h-.003l-5.98.019a.75.75 0 00-.576.272l-6.6 7.99-.78-.781a1.502 1.502 0 00-2.122 0L3 11.69a1.499 1.499 0 000 2.12l1.958 1.959-2.807 2.807a1.501 1.501 0 000 2.121l1.152 1.152a1.5 1.5 0 002.121 0l2.807-2.807L10.189 21a1.502 1.502 0 002.122 0l1.189-1.19a1.499 1.499 0 000-2.12l-.78-.78 7.989-6.6a.75.75 0 00.272-.576L21 3.752a.75.75 0 00-.22-.532zm-1.298 6.157l-7.828 6.467-1.218-1.219L15.53 9.53a.75.75 0 10-1.06-1.06l-5.095 5.094-1.219-1.218 6.467-7.828 4.874-.016-.015 4.875z" fill="url(#paint0_linear_39_6871)"/><defs><linearGradient id="paint0_linear_39_6871" x1="-1.138" y1="-4.233" x2="88.809" y2="-4.233" gradientUnits="userSpaceOnUse"><stop stop-color="#E5453D"/><stop offset="1" stop-color="#FF7A2E"/></linearGradient></defs></svg>